<svg width="32" height="32" viewBox="0 0 100 50" xmlns="http://www.w3.org/2000/svg">
  <!-- Hull -->
  <path d="M8 27 L80 27 L92 23 L96 20 L96 30 L12 32 Z" fill="#1C3D6D"/>

  <!-- Upper body -->
  <path d="M18 20 L72 20 L80 24 L88 24 L80 28 L18 28 Z" fill="#4A90E2"/>

  <!-- Bridge -->
  <polygon points="72,17 88,17 92,24 80,24" fill="#1C3D6D"/>

  <!-- Windows strip -->
  <rect x="22" y="22" width="48" height="3" fill="#90CAF9" rx="1"/>

  <!-- Upper deck -->
  <rect x="32" y="14" width="32" height="4" fill="#4A90E2" rx="1"/>

  <!-- Funnel -->
  <rect x="44" y="8" width="6" height="6" fill="#1C3D6D" rx="1"/>

  <!-- Mast -->
  <line x1="47" y1="8" x2="47" y2="2" stroke="#1C3D6D" stroke-width="1"/>

  <!-- Wave accent -->
  <path d="M15 35 Q25 32 35 35 T55 35 T75 35 T95 35" stroke="#90CAF9" stroke-width="1" fill="none"/>
</svg>
